<?xml version="1.0" encoding="UTF-8"?>
<svg width="26px" height="26px" viewBox="0 0 26 26" version="1.1" xmlns="http://www.w3.org/2000/svg" xmlns:xlink="http://www.w3.org/1999/xlink">
    <title>Rectangle</title>
    <g id="App" stroke="none" stroke-width="1" fill="none" fill-rule="evenodd">
        <g id="NF_CourseApp_Screen6" transform="translate(-318.000000, -251.000000)" stroke="#7589A2">
            <g id="Comprehension" transform="translate(30.000000, 251.000000)">
                <g id="Rectangle" transform="translate(288.000000, 0.000000)">
                    <path d="M21.1999998,0.5 C22.3874121,0.5 23.4624121,0.981293915 24.2405591,1.7594409 C25.0187061,2.53758788 25.5,3.61258793 25.5,4.80000019 L25.5,4.80000019 L25.5,21.1999998 C25.5,22.3874121 25.0187061,23.4624121 24.2405591,24.2405591 C23.4624121,25.0187061 22.3874121,25.5 21.1999998,25.5 L21.1999998,25.5 L4.80000019,25.5 C3.61258793,25.5 2.53758788,25.0187061 1.7594409,24.2405591 C0.981293915,23.4624121 0.5,22.3874121 0.5,21.1999998 L0.5,21.1999998 L0.5,4.80000019 C0.5,3.61258793 0.981293915,2.53758788 1.7594409,1.7594409 C2.53758788,0.981293915 3.61258793,0.5 4.80000019,0.5 L4.80000019,0.5 Z" id="Rectangle-Copy-6" transform="translate(13.000000, 13.000000) rotate(-90.000000) translate(-13.000000, -13.000000) "></path>
                </g>
            </g>
        </g>
    </g>
</svg>