<?xml version="1.0" encoding="UTF-8"?>
<svg width="335px" height="44px" viewBox="0 0 335 44" version="1.1" xmlns="http://www.w3.org/2000/svg" xmlns:xlink="http://www.w3.org/1999/xlink">
    <title>NavigationBar</title>
    <defs>
        <rect id="path-1" x="0" y="0" width="335" height="44" rx="10"></rect>
        <filter x="-5.2%" y="-35.2%" width="110.4%" height="179.5%" filterUnits="objectBoundingBox" id="filter-2">
            <feOffset dx="0" dy="2" in="SourceAlpha" result="shadowOffsetOuter1"></feOffset>
            <feGaussianBlur stdDeviation="5.5" in="shadowOffsetOuter1" result="shadowBlurOuter1"></feGaussianBlur>
            <feColorMatrix values="0 0 0 0 0.0966425387   0 0 0 0 0.196991343   0 0 0 0 0.317947491  0 0 0 0.203238225 0" type="matrix" in="shadowBlurOuter1"></feColorMatrix>
        </filter>
    </defs>
    <g id="Symbols" stroke="none" stroke-width="1" fill="none" fill-rule="evenodd">
        <g id="NavigationBar">
            <g id="Rectangle-Copy-2">
                <use fill="black" fill-opacity="1" filter="url(#filter-2)" xlink:href="#path-1"></use>
                <use fill="#FFFFFF" fill-rule="evenodd" xlink:href="#path-1"></use>
            </g>
            <g id="DashboardIcon" transform="translate(27.000000, 10.000000)" fill="#193251">
                <path d="M10.5,9.75 C11.5543618,9.75 12.4181651,10.5658778 12.4945143,11.6007377 L12.5,11.75 L12.5,20.25 C12.5,21.3043618 11.6841222,22.1681651 10.6492623,22.2445143 L10.5,22.25 L3.5,22.25 C2.4456382,22.25 1.58183488,21.4341222 1.50548574,20.3992623 L1.5,20.25 L1.5,11.75 C1.5,10.6956382 2.31587779,9.83183488 3.35073766,9.75548574 L3.5,9.75 L10.5,9.75 Z M20.5,15.75 C21.5543618,15.75 22.4181651,16.5658778 22.4945143,17.6007377 L22.5,17.75 L22.5,20.25 C22.5,21.3043618 21.6841222,22.1681651 20.6492623,22.2445143 L20.5,22.25 L16.5,22.25 C15.4456382,22.25 14.5818349,21.4341222 14.5054857,20.3992623 L14.5,20.25 L14.5,17.75 C14.5,16.6956382 15.3158778,15.8318349 16.3507377,15.7554857 L16.5,15.75 L20.5,15.75 Z M10.5,11.75 L3.5,11.75 L3.5,20.25 L10.5,20.25 L10.5,11.75 Z M20.5,17.75 L16.5,17.75 L16.5,20.25 L20.5,20.25 L20.5,17.75 Z M20.5,1.75 C21.5543618,1.75 22.4181651,2.56587779 22.4945143,3.60073766 L22.5,3.75 L22.5,11.75 C22.5,12.8043618 21.6841222,13.6681651 20.6492623,13.7445143 L20.5,13.75 L16.5,13.75 C15.4456382,13.75 14.5818349,12.9341222 14.5054857,11.8992623 L14.5,11.75 L14.5,3.75 C14.5,2.6956382 15.3158778,1.83183488 16.3507377,1.75548574 L16.5,1.75 L20.5,1.75 Z M20.5,3.75 L16.5,3.75 L16.5,11.75 L20.5,11.75 L20.5,3.75 Z M10.5,1.75 C11.5543618,1.75 12.4181651,2.56587779 12.4945143,3.60073766 L12.5,3.75 L12.5,5.75 C12.5,6.8043618 11.6841222,7.66816512 10.6492623,7.74451426 L10.5,7.75 L3.5,7.75 C2.4456382,7.75 1.58183488,6.93412221 1.50548574,5.89926234 L1.5,5.75 L1.5,3.75 C1.5,2.6956382 2.31587779,1.83183488 3.35073766,1.75548574 L3.5,1.75 L10.5,1.75 Z M10.5,3.75 L3.5,3.75 L3.5,5.75 L10.5,5.75 L10.5,3.75 Z"></path>
            </g>
            <g id="BuddyIcon" transform="translate(91.000000, 10.000000)" fill="#193251">
                <path d="M12,14.0002464 C14.6887547,14.0002464 16.8818181,16.1225531 16.9953805,18.7833568 L17,19.0002464 L17,21.0002464 C17,21.5525312 16.5522847,22.0002464 16,22.0002464 C15.4871642,22.0002464 15.0644928,21.6142062 15.0067277,21.1168676 L15,21.0002464 L15,19.0002464 C15,17.4025655 13.75108,16.0965856 12.1762728,16.0053391 L12,16.0002464 L5,16.0002464 C3.40231912,16.0002464 2.09633912,17.2491664 2.00509269,18.8239736 L2,19.0002464 L2,21.0002464 C2,21.5525312 1.55228475,22.0002464 1,22.0002464 C0.487164161,22.0002464 0.0644928393,21.6142062 0.00672773133,21.1168676 L0,21.0002464 L0,19.0002464 C0,16.3114917 2.12230671,14.1184283 4.78311038,14.0048659 L5,14.0002464 L12,14.0002464 Z M20.2551795,14.0333527 C22.3884951,14.5963705 23.8951492,16.5080011 23.9947479,18.7255078 L24,18.9559534 L24,21.0002464 C24,21.5525312 23.5522847,22.0002464 23,22.0002464 C22.4871642,22.0002464 22.0644928,21.6142062 22.0067277,21.1168676 L22,21.0002464 L22.0000003,18.9566832 C21.9989693,17.5439601 21.0679399,16.3163335 19.7448205,15.9671401 C19.2108199,15.8262084 18.8921746,15.2790676 19.0331063,14.745067 C19.174038,14.2110663 19.7211788,13.892421 20.2551795,14.0333527 Z M8,2.00024643 C10.7614237,2.00024643 13,4.23882268 13,7.00024643 C13,9.76167018 10.7614237,12.0002464 8,12.0002464 C5.23857625,12.0002464 3,9.76167018 3,7.00024643 C3,4.23882268 5.23857625,2.00024643 8,2.00024643 Z M16.2561499,2.03360937 C18.4649415,2.61891883 20,4.66566353 20,7.00024643 C20,9.33482934 18.4649415,11.381574 16.2561499,11.9668835 C15.722291,12.1083512 15.1748306,11.7902553 15.0333629,11.2563964 C14.8918952,10.7225375 15.2099912,10.1750771 15.7438501,10.0336094 C17.0656577,9.68334249 18,8.43755277 18,7.00024643 C18,5.56294009 17.0656577,4.31715037 15.7438501,3.96688349 C15.2099912,3.82541579 14.8918952,3.2779554 15.0333629,2.74409649 C15.1748306,2.21023759 15.722291,1.89214167 16.2561499,2.03360937 Z M8,4.00024643 C6.34314575,4.00024643 5,5.34339218 5,7.00024643 C5,8.65710068 6.34314575,10.0002464 8,10.0002464 C9.65685425,10.0002464 11,8.65710068 11,7.00024643 C11,5.34339218 9.65685425,4.00024643 8,4.00024643 Z"></path>
            </g>
            <g id="EnergyIcon" transform="translate(219.000000, 10.000000)" fill="#193251">
                <path d="M2.23368987,13.3630538 L2.1658522,13.4538387 C1.73381733,14.1022338 2.19261158,15.0032382 3.00191115,15.0032382 L10.8679112,15.0032382 L10.0096333,21.8792035 C9.88577901,22.8700376 11.1308795,23.4105261 11.7701324,22.6434226 L21.7701324,10.6434226 L21.8379701,10.5526377 C22.270005,9.90424263 21.8112107,9.00323819 21.0019112,9.00323819 L13.1349112,9.00323819 L13.994189,2.12727293 C14.1180433,1.13643882 12.8729428,0.595950276 12.2336899,1.36305379 L2.23368987,13.3630538 Z M11.5859112,5.26423819 L11.0096333,9.87920346 L11.0017922,9.99750958 C10.9976831,10.5440045 11.440513,11.0032382 12.0019112,11.0032382 L18.8659112,11.0032382 L12.4169112,18.7412382 L12.994189,14.1272729 L13.0020301,14.0089668 C13.0061392,13.4624719 12.5633093,13.0032382 12.0019112,13.0032382 L5.13691115,13.0032382 L11.5859112,5.26423819 Z"></path>
            </g>
            <g id="JournalIcon" transform="translate(283.000000, 10.000000)" fill="#193251">
                <path d="M19.0714286,1 C20.6691095,1 21.9750895,2.24891996 22.0663359,3.82372721 L22.0714286,4 L22.0714286,20 C22.0714286,21.5976809 20.8225086,22.9036609 19.2477014,22.9949073 L19.0714286,23 L7.07142857,23 C5.47374769,23 4.16776769,21.75108 4.07652126,20.1762728 L4.07142857,20 L4.071,19 L2.5,19 C1.94771525,19 1.5,18.5522847 1.5,18 C1.5,17.4871642 1.88604019,17.0644928 2.38337887,17.0067277 L2.5,17 L4.071,17 L4.071,15 L2.5,15 C1.94771525,15 1.5,14.5522847 1.5,14 C1.5,13.4871642 1.88604019,13.0644928 2.38337887,13.0067277 L2.5,13 L4.071,13 L4.071,11 L2.5,11 C1.94771525,11 1.5,10.5522847 1.5,10 C1.5,9.48716416 1.88604019,9.06449284 2.38337887,9.00672773 L2.5,9 L4.071,9 L4.071,7 L2.5,7 C1.94771525,7 1.5,6.55228475 1.5,6 C1.5,5.48716416 1.88604019,5.06449284 2.38337887,5.00672773 L2.5,5 L4.071,5 L4.07142857,4 C4.07142857,2.40231912 5.32034854,1.09633912 6.89515578,1.00509269 L7.07142857,1 L19.0714286,1 Z M19.0714286,3 L7.07142857,3 C6.55859273,3 6.13592141,3.38604019 6.0781563,3.88337887 L6.07142857,4 L6.071,5 L7.64285714,5 C8.19514189,5 8.64285714,5.44771525 8.64285714,6 C8.64285714,6.51283584 8.25681695,6.93550716 7.75947827,6.99327227 L7.64285714,7 L6.071,7 L6.071,9 L7.64285714,9 C8.19514189,9 8.64285714,9.44771525 8.64285714,10 C8.64285714,10.5128358 8.25681695,10.9355072 7.75947827,10.9932723 L7.64285714,11 L6.071,11 L6.071,13 L7.64285714,13 C8.19514189,13 8.64285714,13.4477153 8.64285714,14 C8.64285714,14.5128358 8.25681695,14.9355072 7.75947827,14.9932723 L7.64285714,15 L6.071,15 L6.071,17 L7.64285714,17 C8.19514189,17 8.64285714,17.4477153 8.64285714,18 C8.64285714,18.5128358 8.25681695,18.9355072 7.75947827,18.9932723 L7.64285714,19 L6.071,19 L6.07142857,20 C6.07142857,20.5128358 6.45746876,20.9355072 6.95480745,20.9932723 L7.07142857,21 L19.0714286,21 C19.5842644,21 20.0069357,20.6139598 20.0647008,20.1166211 L20.0714286,20 L20.0714286,4 C20.0714286,3.48716416 19.6853884,3.06449284 19.1880497,3.00672773 L19.0714286,3 Z"></path>
            </g>
            <g id="TeamIcon" transform="translate(155.000000, 10.000000)" fill="#193251">
                <path d="M15.7058824,14.0002464 C18.5527991,14.0002464 20.8748662,16.1225531 20.9951088,18.7833568 L21,19.0002464 L21,21.0002464 C21,21.5525312 20.5259486,22.0002464 19.9411765,22.0002464 C19.3981738,22.0002464 18.9506395,21.6142062 18.8894764,21.1168676 L18.8823529,21.0002464 L18.8823529,19.0002464 C18.8823529,17.4025655 17.5599671,16.0965856 15.8925241,16.0053391 L15.7058824,16.0002464 L8.29411765,16.0002464 C6.60245554,16.0002464 5.21965319,17.2491664 5.12303932,18.8239736 L5.11764706,19.0002464 L5.11764706,21.0002464 C5.11764706,21.5525312 4.64359562,22.0002464 4.05882353,22.0002464 C3.51582088,22.0002464 3.06828654,21.6142062 3.00712348,21.1168676 L3,21.0002464 L3,19.0002464 C3,16.3114917 5.24714828,14.1184283 8.06446981,14.0048659 L8.29411765,14.0002464 L15.7058824,14.0002464 Z M0.744820527,14.0333527 C1.27882117,13.892421 1.82596197,14.2110663 1.9668937,14.745067 C2.10782544,15.2790676 1.78918012,15.8262084 1.25517947,15.9671401 C-0.0104129452,16.3011512 -0.917269061,17.4388705 -0.994635914,18.7735216 L-1,18.9566832 L-1,21.0002464 L-1.00672773,21.1168676 C-1.06449284,21.6142062 -1.48716416,22.0002464 -2,22.0002464 C-2.51283584,22.0002464 -2.93550716,21.6142062 -2.99327227,21.1168676 L-3,21.0002464 L-3,18.9559534 L-2.99474791,18.7255078 C-2.89514921,16.5080011 -1.38849508,14.5963705 0.744820527,14.0333527 Z M23.2554252,14.0333527 C25.3887409,14.5963705 26.895395,16.5080011 26.9949937,18.7255078 L27.0002458,18.9559534 L27.0002458,21.0002464 C27.0002458,21.5525312 26.5525305,22.0002464 26.0002458,22.0002464 C25.4874099,22.0002464 25.0647386,21.6142062 25.0069735,21.1168676 L25.0002458,21.0002464 L25.000246,18.9566832 C24.9992151,17.5439601 24.0681856,16.3163335 22.7450663,15.9671401 C22.2110657,15.8262084 21.8924203,15.2790676 22.0333521,14.745067 C22.1742838,14.2110663 22.7214246,13.892421 23.2554252,14.0333527 Z M12.0002458,2.00024643 C14.7616695,2.00024643 17.0002458,4.23882268 17.0002458,7.00024643 C17.0002458,9.76167018 14.7616695,12.0002464 12.0002458,12.0002464 C9.23882203,12.0002464 7.00024578,9.76167018 7.00024578,7.00024643 C7.00024578,4.23882268 9.23882203,2.00024643 12.0002458,2.00024643 Z M4.74384941,2.03360937 C5.27770832,1.89214167 5.8251687,2.21023759 5.96663641,2.74409649 C6.10810411,3.2779554 5.79000819,3.82541579 5.25614928,3.96688349 C3.93434163,4.31715037 2.99999934,5.56294009 2.99999934,7.00024643 C2.99999934,8.43755277 3.93434163,9.68334249 5.25614928,10.0336094 C5.79000819,10.1750771 6.10810411,10.7225375 5.96663641,11.2563964 C5.8251687,11.7902553 5.27770832,12.1083512 4.74384941,11.9668835 C2.53505787,11.381574 0.999999345,9.33482934 0.999999345,7.00024643 C0.999999345,4.66566353 2.53505787,2.61891883 4.74384941,2.03360937 Z M19.2563957,2.03360937 C21.4651873,2.61891883 23.0002458,4.66566353 23.0002458,7.00024643 C23.0002458,9.33482934 21.4651873,11.381574 19.2563957,11.9668835 C18.7225368,12.1083512 18.1750764,11.7902553 18.0336087,11.2563964 C17.892141,10.7225375 18.2102369,10.1750771 18.7440958,10.0336094 C20.0659035,9.68334249 21.0002458,8.43755277 21.0002458,7.00024643 C21.0002458,5.56294009 20.0659035,4.31715037 18.7440958,3.96688349 C18.2102369,3.82541579 17.892141,3.2779554 18.0336087,2.74409649 C18.1750764,2.21023759 18.7225368,1.89214167 19.2563957,2.03360937 Z M12.0002458,4.00024643 C10.3433915,4.00024643 9.00024578,5.34339218 9.00024578,7.00024643 C9.00024578,8.65710068 10.3433915,10.0002464 12.0002458,10.0002464 C13.6571,10.0002464 15.0002458,8.65710068 15.0002458,7.00024643 C15.0002458,5.34339218 13.6571,4.00024643 12.0002458,4.00024643 Z"></path>
            </g>
        </g>
    </g>
</svg>